<?xml version="1.0" encoding="UTF-8" standalone="no"?>
<!-- Generator: Adobe Illustrator 19.0.0, SVG Export Plug-In . SVG Version: 6.00 Build 0)  -->

<svg
   xmlns:dc="http://purl.org/dc/elements/1.1/"
   xmlns:cc="http://creativecommons.org/ns#"
   xmlns:rdf="http://www.w3.org/1999/02/22-rdf-syntax-ns#"
   xmlns:svg="http://www.w3.org/2000/svg"
   xmlns="http://www.w3.org/2000/svg"
   xmlns:sodipodi="http://sodipodi.sourceforge.net/DTD/sodipodi-0.dtd"
   xmlns:inkscape="http://www.inkscape.org/namespaces/inkscape"
   version="1.1"
   id="Layer_1"
   x="0px"
   y="0px"
   viewBox="0 0 512 512"
   style="enable-background:new 0 0 512 512;"
   xml:space="preserve"
   sodipodi:docname="yt-icon-light.svg"
   inkscape:version="0.92.4 (5da689c313, 2019-01-14)"><metadata
   id="metadata45"><rdf:RDF><cc:Work
       rdf:about=""><dc:format>image/svg+xml</dc:format><dc:type
         rdf:resource="http://purl.org/dc/dcmitype/StillImage" /><dc:title></dc:title></cc:Work></rdf:RDF></metadata><defs
   id="defs43" /><sodipodi:namedview
   pagecolor="#ffffff"
   bordercolor="#666666"
   borderopacity="1"
   objecttolerance="10"
   gridtolerance="10"
   guidetolerance="10"
   inkscape:pageopacity="0"
   inkscape:pageshadow="2"
   inkscape:window-width="1920"
   inkscape:window-height="1017"
   id="namedview41"
   showgrid="false"
   inkscape:zoom="0.921875"
   inkscape:cx="-39.263884"
   inkscape:cy="173.27714"
   inkscape:window-x="-8"
   inkscape:window-y="-8"
   inkscape:window-maximized="1"
   inkscape:current-layer="Layer_1" />
<circle
   style="fill:#D22215;"
   cx="256"
   cy="256"
   r="256"
   id="circle2" />
<path
   style="fill:#d22215;fill-opacity:1"
   d="M384.857,170.339c-7.677,2.343-15.682,4.356-23.699,6.361  c-56.889,12.067-132.741-20.687-165.495,32.754c-27.317,42.494-35.942,95.668-67.017,133.663L294.629,509.1  c110.47-16.72,197.773-104.036,214.476-214.511L384.857,170.339z"
   id="path4" />
<path
   style="fill:#FFFFFF;"
   d="M341.649,152.333H170.351c-33.608,0-60.852,27.245-60.852,60.852v85.632  c0,33.608,27.245,60.852,60.852,60.852h171.298c33.608,0,60.852-27.245,60.852-60.852v-85.632  C402.501,179.578,375.256,152.333,341.649,152.333L341.649,152.333z M300.494,260.167l-80.12,38.212  c-2.136,1.019-4.603-0.536-4.603-2.901v-78.814c0-2.4,2.532-3.955,4.67-2.87l80.12,40.601  C302.947,255.602,302.904,259.019,300.494,260.167L300.494,260.167z"
   id="path6" />
<path
   style="fill:#ffffff;fill-opacity:1"
   d="M341.649,152.333h-87.373v78.605l46.287,23.455c2.384,1.208,2.341,4.624-0.069,5.773l-46.218,22.044  v77.459h87.373c33.608,0,60.852-27.245,60.852-60.852v-85.632C402.501,179.578,375.256,152.333,341.649,152.333z"
   id="path8" />
<g
   id="g10">
</g>
<g
   id="g12">
</g>
<g
   id="g14">
</g>
<g
   id="g16">
</g>
<g
   id="g18">
</g>
<g
   id="g20">
</g>
<g
   id="g22">
</g>
<g
   id="g24">
</g>
<g
   id="g26">
</g>
<g
   id="g28">
</g>
<g
   id="g30">
</g>
<g
   id="g32">
</g>
<g
   id="g34">
</g>
<g
   id="g36">
</g>
<g
   id="g38">
</g>
</svg>